<?xml version="1.0" encoding="UTF-8" standalone="no"?>
<!-- Created with Inkscape (http://www.inkscape.org/) -->

<svg
   width="20.32mm"
   height="128.5mm"
   viewBox="0 0 20.32 128.5"
   version="1.1"
   id="svg5"
   inkscape:version="1.2 (dc2aeda, 2022-05-15)"
   sodipodi:docname="Uplyt.svg"
   xmlns:inkscape="http://www.inkscape.org/namespaces/inkscape"
   xmlns:sodipodi="http://sodipodi.sourceforge.net/DTD/sodipodi-0.dtd"
   xmlns="http://www.w3.org/2000/svg"
   xmlns:svg="http://www.w3.org/2000/svg">
  <sodipodi:namedview
     id="namedview7"
     pagecolor="#505050"
     bordercolor="#ffffff"
     borderopacity="1"
     inkscape:showpageshadow="0"
     inkscape:pageopacity="0"
     inkscape:pagecheckerboard="1"
     inkscape:deskcolor="#505050"
     inkscape:document-units="mm"
     showgrid="false"
     inkscape:zoom="1.1584997"
     inkscape:cx="287.44073"
     inkscape:cy="276.65091"
     inkscape:window-width="1309"
     inkscape:window-height="865"
     inkscape:window-x="100"
     inkscape:window-y="41"
     inkscape:window-maximized="0"
     inkscape:current-layer="layer2" />
  <defs
     id="defs2" />
  <g
     inkscape:label="Layer 1"
     inkscape:groupmode="layer"
     id="layer1">
    <rect
       style="fill:#e9afaf;stroke:#916f6f;stroke-width:0.264583"
       id="rect232"
       width="20.097834"
       height="128.12369"
       x="0"
       y="0.22838446" />
    <g
       aria-label="BPM"
       id="text288"
       style="font-size:3.175px;stroke:#916f6f;stroke-width:0.264583">
      <path
         d="m 8.9025719,4.9995772 q 0,0.1720826 -0.065112,0.3038575 Q 8.7723473,5.4352096 8.6622765,5.5204757 8.5320519,5.622795 8.3754723,5.6662032 8.220443,5.7096114 7.9801476,5.7096114 H 7.161593 V 3.4012252 h 0.6836791 q 0.2526978,0 0.3782715,0.018604 0.1255738,0.018604 0.2402954,0.077515 0.1271241,0.066663 0.1844849,0.1720825 0.057361,0.1038696 0.057361,0.2495972 0,0.164331 -0.083716,0.280603 -0.083716,0.1147217 -0.2232422,0.1844848 v 0.012402 q 0.2340943,0.048059 0.3689697,0.206189 0.1348755,0.1565795 0.1348755,0.3968749 z M 8.3863244,3.9593307 q 0,-0.083716 -0.027905,-0.1410767 Q 8.3305138,3.7608932 8.2685021,3.7252364 8.1956384,3.6833785 8.0917687,3.6740768 7.9878991,3.6632247 7.8344201,3.6632247 H 7.468551 v 0.666626 h 0.396875 q 0.1441772,0 0.2294433,-0.013953 0.085266,-0.015503 0.1581299,-0.062012 0.072864,-0.046509 0.1023193,-0.1193725 0.031006,-0.074414 0.031006,-0.1751831 z m 0.1968872,1.0526489 q 0,-0.1395264 -0.041858,-0.2216919 Q 8.4994958,4.7081222 8.389425,4.6507613 8.3150109,4.612004 8.2080407,4.601152 8.1026208,4.5887496 7.9506921,4.5887496 H 7.468551 v 0.8588623 h 0.4061767 q 0.2015381,0 0.3302124,-0.020154 0.1286743,-0.021704 0.2108398,-0.077515 0.086816,-0.060462 0.1271241,-0.1379761 0.040308,-0.077515 0.040308,-0.1999878 z"
         id="path888" />
      <path
         d="m 10.848189,4.098857 q 0,0.153479 -0.05426,0.2852539 -0.05271,0.1302247 -0.148828,0.2263428 -0.119372,0.1193726 -0.282153,0.179834 -0.162781,0.058911 -0.4108279,0.058911 H 9.6451621 V 5.7096114 H 9.3382041 V 3.4012252 h 0.6263184 q 0.2077395,0 0.3519165,0.035657 0.144177,0.034106 0.255798,0.1085205 0.131775,0.088367 0.203089,0.2201416 0.07286,0.1317749 0.07286,0.3333129 z m -0.31936,0.00775 q 0,-0.1193725 -0.04186,-0.2077392 Q 10.445113,3.8105026 10.359847,3.754692 10.285433,3.7066329 10.189315,3.6864791 10.094747,3.664775 9.9490196,3.664775 H 9.6451621 v 0.9224243 h 0.258899 q 0.1860349,0 0.3023069,-0.032556 0.116272,-0.034107 0.189136,-0.1069702 0.07286,-0.074414 0.102319,-0.1565796 0.03101,-0.082166 0.03101,-0.1844849 z"
         id="path890" />
      <path
         d="M 13.308504,5.7096114 H 13.001546 V 3.7205856 L 12.359725,5.0739913 H 12.17679 L 11.53962,3.7205856 V 5.7096114 H 11.252816 V 3.4012252 h 0.418579 l 0.615466,1.2851929 0.595313,-1.2851929 h 0.42633 z"
         id="path892" />
    </g>
    <g
       aria-label="CV"
       id="text548"
       style="font-size:3.175px;stroke:#916f6f;stroke-width:0.264583">
      <path
         d="m 5.7470476,24.726474 q -0.085266,0.03721 -0.1550293,0.06976 -0.068213,0.03256 -0.1798339,0.06821 -0.094568,0.02946 -0.206189,0.04961 -0.1100708,0.0217 -0.243396,0.0217 -0.2511475,0 -0.4573364,-0.06976 -0.2046387,-0.07131 -0.3565674,-0.221692 -0.1488281,-0.147277 -0.2325439,-0.37362 -0.083716,-0.227893 -0.083716,-0.52865 0,-0.285254 0.080615,-0.510046 0.080615,-0.224793 0.2325439,-0.379822 0.1472778,-0.150379 0.3550171,-0.229444 0.2092896,-0.07906 0.4635376,-0.07906 0.1860351,0 0.37052,0.04496 0.1860352,0.04496 0.4123779,0.15813 v 0.364319 h -0.023254 q -0.190686,-0.15968 -0.3782714,-0.232544 -0.1875855,-0.07286 -0.4015259,-0.07286 -0.1751831,0 -0.3162598,0.05736 -0.1395263,0.05581 -0.2495971,0.175183 -0.1069703,0.116272 -0.1674317,0.294556 -0.058911,0.176733 -0.058911,0.409277 0,0.243396 0.065112,0.418579 0.066663,0.175183 0.1705322,0.285254 0.1085205,0.114722 0.2526978,0.170532 0.1457275,0.05426 0.306958,0.05426 0.2216919,0 0.4154785,-0.07596 0.1937866,-0.07596 0.3627685,-0.227893 h 0.021704 z"
         id="path895" />
      <path
         d="M 8.0011736,22.585519 7.1609148,24.893906 H 6.7516375 L 5.9113787,22.585519 h 0.3286621 l 0.7239868,2.030884 0.7239868,-2.030884 z"
         id="path897" />
    </g>
    <g
       aria-label="In "
       id="text552"
       style="font-size:3.175px;stroke:#916f6f;stroke-width:0.264583">
      <path
         d="m 14.141877,24.665522 h -0.911572 v -0.235645 h 0.302307 V 22.59278 h -0.302307 v -0.235645 h 0.911572 V 22.59278 H 13.83957 v 1.837097 h 0.302307 z"
         id="path900" />
      <path
         d="M 16.089045,24.665522 H 15.79759 v -0.985987 q 0,-0.119372 -0.01395,-0.223242 -0.01395,-0.10542 -0.05116,-0.164331 -0.03876,-0.06511 -0.111621,-0.09612 -0.07286,-0.03256 -0.189136,-0.03256 -0.119373,0 -0.249597,0.05891 -0.130225,0.05891 -0.249597,0.150378 v 1.292945 h -0.291456 v -1.731678 h 0.291456 v 0.192237 q 0.136425,-0.113172 0.282153,-0.176734 0.145727,-0.06356 0.299206,-0.06356 0.280603,0 0.427881,0.168982 0.147278,0.168982 0.147278,0.486792 z"
         id="path902" />
    </g>
    <g
       aria-label="Out"
       id="text672"
       style="font-size:3.175px;stroke:#916f6f;stroke-width:0.264583">
      <path
         d="m 9.5675711,30.844077 q 0.1410767,0.15503 0.2154908,0.379822 0.075964,0.224793 0.075964,0.510046 0,0.285254 -0.077515,0.511597 -0.075964,0.224793 -0.2139405,0.375171 -0.1426269,0.15658 -0.3379638,0.235645 -0.1937866,0.07906 -0.4433838,0.07906 -0.243396,0 -0.4433838,-0.08062 -0.1984375,-0.08062 -0.3379639,-0.234094 -0.1395263,-0.153479 -0.2154907,-0.376721 -0.074414,-0.223242 -0.074414,-0.510047 0,-0.282153 0.074414,-0.505395 0.074414,-0.224792 0.217041,-0.384473 0.1364258,-0.151928 0.3379639,-0.232544 0.2030884,-0.08062 0.4418335,-0.08062 0.2480469,0 0.4449341,0.08217 0.1984375,0.08061 0.3364135,0.230993 z m -0.027905,0.889868 q 0,-0.449584 -0.2015381,-0.69298 -0.2015381,-0.244947 -0.550354,-0.244947 -0.3519165,0 -0.5534546,0.244947 -0.1999878,0.243396 -0.1999878,0.69298 0,0.454236 0.2046387,0.696082 0.2046386,0.240295 0.5488037,0.240295 0.344165,0 0.5472534,-0.240295 0.2046387,-0.241846 0.2046387,-0.696082 z"
         id="path905" />
      <path
         d="M 11.758135,32.887363 H 11.46668 v -0.192236 q -0.147278,0.116272 -0.282153,0.178284 -0.134876,0.06201 -0.297656,0.06201 -0.272852,0 -0.424781,-0.165882 -0.151928,-0.167431 -0.151928,-0.489892 v -1.123963 h 0.291455 v 0.985987 q 0,0.131774 0.0124,0.226342 0.0124,0.09302 0.05271,0.15968 0.04186,0.06821 0.10852,0.09922 0.06666,0.03101 0.193787,0.03101 0.113171,0 0.246497,-0.05891 0.134875,-0.05891 0.251147,-0.150378 v -1.292945 h 0.291455 z"
         id="path907" />
      <path
         d="m 13.230914,32.871861 q -0.08217,0.0217 -0.179834,0.03566 -0.09612,0.01395 -0.172083,0.01395 -0.2651,0 -0.403076,-0.142627 -0.137976,-0.142627 -0.137976,-0.457336 v -0.920875 h -0.196887 v -0.244946 h 0.196887 V 30.658042 H 12.6294 v 0.497644 h 0.601514 v 0.244946 H 12.6294 v 0.7891 q 0,0.136425 0.0062,0.21394 0.0062,0.07596 0.04341,0.142627 0.03411,0.06201 0.09302,0.09147 0.06046,0.02791 0.182934,0.02791 0.07131,0 0.148829,-0.02015 0.07751,-0.0217 0.111621,-0.03566 h 0.0155 z"
         id="path909" />
    </g>
    <g
       aria-label="Subdivide"
       id="text676"
       style="font-size:3.175px;stroke:#916f6f;stroke-width:0.264583">
      <path
         d="m 4.7280893,43.190941 q 0,0.134875 -0.063562,0.26665 -0.062012,0.131775 -0.1751831,0.223242 -0.1240234,0.09922 -0.2899047,0.15503 -0.1643311,0.05581 -0.396875,0.05581 -0.2495972,0 -0.449585,-0.04651 -0.1984375,-0.04651 -0.4046264,-0.137976 v -0.384472 h 0.021704 q 0.1751831,0.145727 0.4046264,0.224792 0.2294434,0.07906 0.4309815,0.07906 0.2852539,0 0.4433837,-0.10697 0.1596802,-0.10697 0.1596802,-0.285254 0,-0.153479 -0.075964,-0.226343 -0.074414,-0.07286 -0.2278931,-0.113171 -0.116272,-0.03101 -0.2526978,-0.05116 -0.1348754,-0.02015 -0.2868042,-0.05116 -0.306958,-0.06511 -0.4557861,-0.221692 -0.1472778,-0.15813 -0.1472778,-0.410828 0,-0.289905 0.2449463,-0.47439 0.2449463,-0.186035 0.6216674,-0.186035 0.243396,0 0.4464844,0.04651 0.2030884,0.04651 0.359668,0.114722 V 42.02357 H 4.6133676 Q 4.4815927,41.911949 4.266102,41.839085 q -0.2139405,-0.07441 -0.4387329,-0.07441 -0.2464966,0 -0.396875,0.10232 -0.1488282,0.102319 -0.1488282,0.263549 0,0.144178 0.074414,0.226343 0.074414,0.08217 0.2619995,0.125574 0.099219,0.0217 0.2821533,0.05271 0.1829346,0.03101 0.3100586,0.06356 0.2573486,0.06821 0.3875732,0.206189 0.1302247,0.137976 0.1302247,0.386023 z"
         id="path912" />
      <path
         d="M 6.6333993,43.849815 H 6.3419442 v -0.192236 q -0.1472778,0.116272 -0.2821533,0.178284 -0.1348755,0.06201 -0.2976562,0.06201 -0.2728516,0 -0.4247803,-0.165881 -0.1519287,-0.167432 -0.1519287,-0.489892 v -1.123963 h 0.2914551 v 0.985986 q 0,0.131775 0.012402,0.226343 0.012402,0.09302 0.05271,0.15968 0.041858,0.06821 0.1085205,0.09922 0.066663,0.03101 0.1937866,0.03101 0.1131714,0 0.2464966,-0.05891 0.1348755,-0.05891 0.2511474,-0.150379 v -1.292944 h 0.2914551 z"
         id="path914" />
      <path
         d="m 8.7309456,42.970799 q 0,0.217041 -0.062012,0.390674 -0.060461,0.173633 -0.1643311,0.291455 -0.1100708,0.122473 -0.2418457,0.184485 -0.1317749,0.06046 -0.2899047,0.06046 -0.1472779,0 -0.2573487,-0.03566 -0.1100708,-0.03411 -0.217041,-0.09302 l -0.018604,0.08062 H 7.2070076 V 41.43756 h 0.2914551 v 0.861962 q 0.1224732,-0.100769 0.2604492,-0.164331 0.1379761,-0.06511 0.3100586,-0.06511 0.306958,0 0.4836914,0.235645 0.1782837,0.235644 0.1782837,0.665075 z m -0.3007568,0.0078 q 0,-0.310059 -0.1023194,-0.469739 -0.1023193,-0.16123 -0.3302124,-0.16123 -0.127124,0 -0.2573486,0.05581 -0.1302246,0.05426 -0.2418457,0.141077 v 0.992187 q 0.1240235,0.05581 0.2123901,0.07751 0.089917,0.0217 0.2030884,0.0217 0.2418457,0 0.3782715,-0.15813 0.1379761,-0.15968 0.1379761,-0.499194 z"
         id="path916" />
      <path
         d="m 10.589747,43.849815 h -0.291455 v -0.181384 q -0.125574,0.108521 -0.262,0.168982 -0.1364256,0.06046 -0.2961058,0.06046 -0.3100585,0 -0.4929931,-0.238745 -0.1813843,-0.238745 -0.1813843,-0.661975 0,-0.220141 0.062012,-0.392224 0.063562,-0.172082 0.1705323,-0.293005 0.1054199,-0.117822 0.2449462,-0.179834 0.1410767,-0.06201 0.2914551,-0.06201 0.1364258,0 0.2418459,0.02946 0.10542,0.0279 0.221692,0.08837 V 41.43756 h 0.291455 z m -0.291455,-0.42633 v -0.993738 q -0.117823,-0.05271 -0.21084,-0.07286 -0.093018,-0.02015 -0.2030885,-0.02015 -0.2449463,0 -0.3813721,0.170533 -0.1364258,0.170532 -0.1364258,0.483691 0,0.308508 0.10542,0.469739 0.1054199,0.15968 0.3379638,0.15968 0.1240235,0 0.2511476,-0.05426 0.127124,-0.05581 0.237195,-0.142627 z"
         id="path918" />
      <path
         d="m 11.476515,41.828233 h -0.328662 v -0.302307 h 0.328662 z m -0.0186,2.021582 h -0.291455 v -1.731677 h 0.291455 z"
         id="path920" />
      <path
         d="m 13.532203,42.118138 -0.700732,1.731677 h -0.293006 l -0.696081,-1.731677 h 0.316259 l 0.536402,1.378211 0.53175,-1.378211 z"
         id="path922" />
      <path
         d="m 14.226734,41.828233 h -0.328662 v -0.302307 h 0.328662 z m -0.0186,2.021582 h -0.291455 v -1.731677 h 0.291455 z"
         id="path924" />
      <path
         d="M 16.189405,43.849815 H 15.89795 v -0.181384 q -0.125574,0.108521 -0.262,0.168982 -0.136426,0.06046 -0.296106,0.06046 -0.310058,0 -0.492993,-0.238745 -0.181384,-0.238745 -0.181384,-0.661975 0,-0.220141 0.06201,-0.392224 0.06356,-0.172082 0.170532,-0.293005 0.10542,-0.117822 0.244946,-0.179834 0.141077,-0.06201 0.291455,-0.06201 0.136426,0 0.241846,0.02946 0.10542,0.0279 0.221692,0.08837 V 41.43756 h 0.291455 z m -0.291455,-0.42633 v -0.993738 q -0.117823,-0.05271 -0.21084,-0.07286 -0.09302,-0.02015 -0.203088,-0.02015 -0.244947,0 -0.381373,0.170533 -0.136425,0.170532 -0.136425,0.483691 0,0.308508 0.10542,0.469739 0.10542,0.15968 0.337963,0.15968 0.124024,0 0.251148,-0.05426 0.127124,-0.05581 0.237195,-0.142627 z"
         id="path926" />
      <path
         d="m 18.212538,43.014207 h -1.275892 q 0,0.159681 0.04806,0.279053 0.04806,0.117822 0.131775,0.193787 0.08062,0.07441 0.190686,0.111621 0.111622,0.03721 0.244947,0.03721 0.176733,0 0.355017,-0.06976 0.179834,-0.07131 0.255798,-0.139527 h 0.0155 v 0.31781 q -0.147278,0.06201 -0.300757,0.10387 -0.153479,0.04186 -0.322461,0.04186 -0.430981,0 -0.672827,-0.232544 -0.241846,-0.234094 -0.241846,-0.663525 0,-0.424781 0.230994,-0.674378 0.232544,-0.249597 0.610816,-0.249597 0.350366,0 0.539501,0.204639 0.190687,0.204638 0.190687,0.58136 z m -0.283704,-0.223242 q -0.0015,-0.229443 -0.116272,-0.355017 -0.113171,-0.125574 -0.345715,-0.125574 -0.234095,0 -0.373621,0.137977 -0.137976,0.137976 -0.15658,0.342614 z"
         id="path928" />
    </g>
    <g
       aria-label="2,4,8,16"
       id="text680"
       style="font-size:3.175px;stroke:#916f6f;stroke-width:0.264583">
      <path
         d="M 5.2380596,47.732357 H 3.6753643 v -0.324011 q 0.1627808,-0.139527 0.3255616,-0.279053 0.164331,-0.139526 0.3054077,-0.277502 0.2976562,-0.288355 0.407727,-0.457337 0.1100708,-0.170532 0.1100708,-0.367419 0,-0.179834 -0.1193725,-0.280603 -0.1178223,-0.10232 -0.3302124,-0.10232 -0.1410767,0 -0.3054077,0.04961 -0.1643311,0.04961 -0.3209107,0.151929 h -0.015503 v -0.325562 q 0.1100708,-0.05426 0.2930054,-0.09922 0.1844848,-0.04496 0.3565673,-0.04496 0.3550171,0 0.5565552,0.172082 0.2015381,0.170532 0.2015381,0.463538 0,0.131775 -0.034107,0.246496 -0.032556,0.113172 -0.097668,0.215491 -0.060461,0.09612 -0.142627,0.189136 -0.080615,0.09302 -0.1968872,0.206189 -0.1658813,0.162781 -0.3426147,0.31626 -0.1767334,0.151928 -0.3302124,0.282153 h 1.2417846 z"
         id="path931" />
      <path
         d="M 6.3356671,47.290524 5.8984845,48.305965 H 5.6721417 l 0.269751,-1.015441 z"
         id="path933" />
      <path
         d="M 8.4642194,47.082784 H 8.1216046 v 0.649573 H 7.8239484 V 47.082784 H 6.7185895 v -0.356567 l 1.1177612,-1.302246 h 0.2852539 v 1.410766 h 0.3426148 z m -0.640271,-0.248047 v -1.041796 l -0.8945191,1.041796 z"
         id="path935" />
      <path
         d="M 9.5091169,47.290524 9.0719343,48.305965 H 8.8455915 l 0.269751,-1.015441 z"
         id="path937" />
      <path
         d="m 11.602012,47.088985 q 0,0.299207 -0.234094,0.497644 -0.232544,0.198438 -0.586011,0.198438 -0.37517,0 -0.598413,-0.193787 -0.2216916,-0.193786 -0.2216916,-0.496093 0,-0.192237 0.1116216,-0.347266 0.111621,-0.15658 0.314709,-0.248047 v -0.0093 q -0.186035,-0.09922 -0.275952,-0.217041 -0.08837,-0.117822 -0.08837,-0.294555 0,-0.26045 0.213941,-0.434082 0.21394,-0.173633 0.544152,-0.173633 0.345716,0 0.551905,0.165881 0.206189,0.165882 0.206189,0.42168 0,0.156579 -0.09767,0.308508 -0.09767,0.150379 -0.286804,0.235645 v 0.0093 q 0.217041,0.09302 0.331763,0.229444 0.114721,0.136426 0.114721,0.347265 z m -0.367419,-1.127063 q 0,-0.165881 -0.128674,-0.263549 -0.127124,-0.09922 -0.325562,-0.09922 -0.195337,0 -0.320911,0.09302 -0.124023,0.09302 -0.124023,0.251147 0,0.111621 0.06201,0.193787 0.06356,0.08061 0.190686,0.144177 0.05736,0.0279 0.164331,0.07286 0.10852,0.04496 0.21084,0.07441 0.153479,-0.10232 0.21239,-0.21239 0.05891,-0.110071 0.05891,-0.254249 z m 0.04806,1.156519 q 0,-0.142627 -0.06356,-0.227893 -0.06201,-0.08682 -0.244946,-0.173633 -0.07286,-0.03411 -0.15968,-0.06356 -0.08682,-0.02946 -0.230994,-0.08217 -0.139526,0.07596 -0.224793,0.206189 -0.08371,0.130224 -0.08371,0.294555 0,0.20929 0.144177,0.345716 0.144177,0.136425 0.365869,0.136425 0.226343,0 0.361218,-0.116272 0.136426,-0.116272 0.136426,-0.31936 z"
         id="path939" />
      <path
         d="m 12.682567,47.290524 -0.437183,1.015441 h -0.226343 l 0.269751,-1.015441 z"
         id="path941" />
      <path
         d="m 14.626634,47.732357 h -1.249536 v -0.235645 h 0.480591 V 45.94952 h -0.480591 v -0.21084 q 0.09767,0 0.20929,-0.0155 0.111621,-0.01705 0.168982,-0.04806 0.07131,-0.03876 0.111621,-0.09767 0.04186,-0.06046 0.04806,-0.161231 h 0.240295 v 2.080493 h 0.471289 z"
         id="path943" />
      <path
         d="m 16.810997,46.983566 q 0,0.351916 -0.232544,0.575158 -0.230994,0.221692 -0.567407,0.221692 -0.170533,0 -0.310059,-0.05271 -0.139526,-0.05271 -0.246496,-0.156579 -0.133326,-0.128675 -0.206189,-0.341065 -0.07131,-0.21239 -0.07131,-0.511597 0,-0.306958 0.06511,-0.544152 0.06666,-0.237195 0.21084,-0.42168 0.136426,-0.175183 0.351917,-0.272852 0.21549,-0.09922 0.502295,-0.09922 0.09147,0 0.153479,0.0078 0.06201,0.0078 0.125573,0.0279 v 0.296106 h -0.0155 q -0.04341,-0.02325 -0.131774,-0.04341 -0.08682,-0.0217 -0.178284,-0.0217 -0.333313,0 -0.531751,0.20929 -0.198437,0.207739 -0.230993,0.562756 0.130224,-0.07906 0.255798,-0.119373 0.127124,-0.04186 0.293005,-0.04186 0.147278,0 0.258899,0.02791 0.113172,0.02636 0.230994,0.10852 0.136426,0.09457 0.204639,0.238745 0.06976,0.144178 0.06976,0.350367 z m -0.31471,0.0124 q 0,-0.144177 -0.04341,-0.238745 -0.04186,-0.09457 -0.139526,-0.164331 -0.07131,-0.04961 -0.15813,-0.06511 -0.08682,-0.0155 -0.181384,-0.0155 -0.131775,0 -0.244947,0.03101 -0.113171,0.03101 -0.232544,0.09612 -0.0031,0.03411 -0.0046,0.06666 -0.0016,0.03101 -0.0016,0.07906 0,0.244946 0.04961,0.387573 0.05116,0.141077 0.139526,0.223242 0.07131,0.06821 0.153479,0.100769 0.08372,0.03101 0.181384,0.03101 0.224793,0 0.353467,-0.136425 0.128674,-0.137976 0.128674,-0.395325 z"
         id="path945" />
    </g>
    <g
       aria-label="Out"
       id="text688"
       style="font-size:3.175px;stroke:#916f6f;stroke-width:0.264583">
      <path
         d="m 8.6540332,57.793445 q 0.1410766,0.155029 0.2154907,0.379822 0.075964,0.224792 0.075964,0.510046 0,0.285254 -0.077515,0.511597 -0.075964,0.224792 -0.2139404,0.375171 -0.142627,0.156579 -0.3379639,0.235644 -0.1937866,0.07906 -0.4433838,0.07906 -0.243396,0 -0.4433838,-0.08062 -0.1984375,-0.08062 -0.3379638,-0.234094 -0.1395264,-0.153479 -0.2154908,-0.376722 -0.074414,-0.223242 -0.074414,-0.510046 0,-0.282153 0.074414,-0.505395 0.074414,-0.224793 0.2170411,-0.384473 0.1364257,-0.151929 0.3379638,-0.232544 0.2030884,-0.08062 0.4418335,-0.08062 0.2480469,0 0.4449341,0.08217 0.1984375,0.08061 0.3364136,0.230994 z m -0.027905,0.889868 q 0,-0.449585 -0.2015381,-0.692981 -0.2015381,-0.244946 -0.550354,-0.244946 -0.3519165,0 -0.5534546,0.244946 -0.1999878,0.243396 -0.1999878,0.692981 0,0.454236 0.2046387,0.696082 0.2046387,0.240295 0.5488037,0.240295 0.344165,0 0.5472534,-0.240295 0.2046387,-0.241846 0.2046387,-0.696082 z"
         id="path948" />
      <path
         d="m 10.844597,59.836731 h -0.291455 v -0.192236 q -0.147278,0.116272 -0.282153,0.178283 -0.134876,0.06201 -0.2976565,0.06201 -0.2728515,0 -0.4247802,-0.165881 -0.1519287,-0.167432 -0.1519287,-0.489893 v -1.123962 h 0.291455 v 0.985986 q 0,0.131775 0.012402,0.226343 0.012402,0.09302 0.05271,0.15968 0.041858,0.06821 0.1085205,0.09922 0.066663,0.03101 0.1937866,0.03101 0.113171,0 0.246497,-0.05891 0.134875,-0.05891 0.251147,-0.150378 v -1.292944 h 0.291455 z"
         id="path950" />
      <path
         d="m 12.317376,59.821228 q -0.08217,0.0217 -0.179834,0.03566 -0.09612,0.01395 -0.172083,0.01395 -0.2651,0 -0.403076,-0.142627 -0.137976,-0.142627 -0.137976,-0.457336 V 58.35 H 11.22752 v -0.244946 h 0.196887 V 57.60741 h 0.291455 v 0.497644 h 0.601514 V 58.35 h -0.601514 v 0.789099 q 0,0.136426 0.0062,0.213941 0.0062,0.07596 0.04341,0.142627 0.03411,0.06201 0.09302,0.09147 0.06046,0.02791 0.182934,0.02791 0.07131,0 0.148829,-0.02015 0.07751,-0.0217 0.111621,-0.03566 h 0.0155 z"
         id="path952" />
    </g>
    <g
       aria-label="Tuplet"
       id="text692"
       style="font-size:3.175px;stroke:#916f6f;stroke-width:0.264583">
      <path
         d="M 6.7525431,68.535274 H 5.9277873 v 2.035534 H 5.6208293 V 68.535274 H 4.7960734 v -0.272852 h 1.9564697 z"
         id="path955" />
      <path
         d="M 8.16486,70.570808 H 7.8734049 v -0.192236 q -0.1472778,0.116272 -0.2821533,0.178284 -0.1348755,0.06201 -0.2976563,0.06201 -0.2728515,0 -0.4247802,-0.165881 -0.1519288,-0.167431 -0.1519288,-0.489892 v -1.123963 h 0.2914551 v 0.985987 q 0,0.131774 0.012402,0.226342 0.012402,0.09302 0.05271,0.15968 0.041858,0.06821 0.1085205,0.09922 0.066663,0.03101 0.1937867,0.03101 0.1131713,0 0.2464965,-0.05891 0.1348755,-0.05891 0.2511475,-0.150378 V 68.839131 H 8.16486 Z"
         id="path957" />
      <path
         d="m 10.262406,69.684041 q 0,0.21084 -0.06046,0.386023 -0.06046,0.173633 -0.170532,0.294555 -0.1023196,0.114722 -0.241846,0.178284 -0.1379761,0.06201 -0.2930053,0.06201 -0.1348755,0 -0.2449463,-0.02946 -0.1085205,-0.02945 -0.2216919,-0.09147 v 0.725537 H 8.7384684 v -2.370398 h 0.2914551 v 0.181384 q 0.1162719,-0.09767 0.2604492,-0.16278 0.1457275,-0.06666 0.3100586,-0.06666 0.3131592,0 0.4867917,0.237195 0.175183,0.235644 0.175183,0.655774 z m -0.3007565,0.0078 q 0,-0.313159 -0.1069702,-0.468188 -0.1069702,-0.155029 -0.3286621,-0.155029 -0.1255737,0 -0.2526977,0.05426 -0.1271241,0.05426 -0.243396,0.142627 v 0.981335 q 0.1240234,0.05581 0.2123901,0.07596 0.089917,0.02015 0.2030884,0.02015 0.243396,0 0.3798218,-0.164331 0.1364257,-0.164331 0.1364257,-0.486792 z"
         id="path959" />
      <path
         d="m 11.011198,70.570808 h -0.291455 v -2.412255 h 0.291455 z"
         id="path961" />
      <path
         d="M 13.037431,69.735201 H 11.76154 q 0,0.15968 0.04806,0.279052 0.04806,0.117823 0.131775,0.193787 0.08061,0.07441 0.190686,0.111621 0.111621,0.03721 0.244946,0.03721 0.176733,0 0.355017,-0.06976 0.179834,-0.07131 0.255798,-0.139527 h 0.0155 v 0.31781 q -0.147278,0.06201 -0.300757,0.10387 -0.153479,0.04186 -0.32246,0.04186 -0.430982,0 -0.672828,-0.232544 -0.241845,-0.234094 -0.241845,-0.663525 0,-0.424781 0.230993,-0.674378 0.232544,-0.249597 0.610816,-0.249597 0.350366,0 0.539502,0.204639 0.190686,0.204638 0.190686,0.58136 z m -0.283704,-0.223243 q -0.0015,-0.229443 -0.116272,-0.355017 -0.113171,-0.125573 -0.345715,-0.125573 -0.234094,0 -0.373621,0.137976 -0.137976,0.137976 -0.156579,0.342614 z"
         id="path963" />
      <path
         d="m 14.378435,70.555305 q -0.08217,0.0217 -0.179834,0.03566 -0.09612,0.01395 -0.172083,0.01395 -0.2651,0 -0.403076,-0.142627 -0.137976,-0.142627 -0.137976,-0.457337 v -0.920874 h -0.196887 v -0.244946 h 0.196887 v -0.497644 h 0.291455 v 0.497644 h 0.601514 v 0.244946 h -0.601514 v 0.7891 q 0,0.136425 0.0062,0.21394 0.0062,0.07596 0.04341,0.142627 0.03411,0.06201 0.09302,0.09147 0.06046,0.02791 0.182934,0.02791 0.07131,0 0.148829,-0.02015 0.07751,-0.0217 0.111621,-0.03566 h 0.0155 z"
         id="path965" />
    </g>
    <g
       aria-label="1"
       id="text696"
       style="font-size:3.175px;stroke:#916f6f;stroke-width:0.264583">
      <path
         d="M 6.0198225,81.761635 H 4.7702864 V 81.52599 H 5.2508772 V 79.978798 H 4.7702864 v -0.21084 q 0.097668,0 0.2092895,-0.0155 0.1116211,-0.01705 0.1689819,-0.04806 0.071314,-0.03876 0.1116211,-0.09767 0.041858,-0.06046 0.048059,-0.161231 h 0.2402954 v 2.080493 h 0.4712891 z"
         id="path971" />
    </g>
    <g
       aria-label="8"
       id="text700"
       style="font-size:3.175px;stroke:#916f6f;stroke-width:0.264583">
      <path
         d="m 14.162107,81.346649 q 0,0.299207 -0.234094,0.497644 -0.232544,0.198438 -0.586011,0.198438 -0.37517,0 -0.598413,-0.193787 -0.221691,-0.193787 -0.221691,-0.496094 0,-0.192236 0.111621,-0.347265 0.111621,-0.15658 0.314709,-0.248047 v -0.0093 q -0.186035,-0.09922 -0.275952,-0.217041 -0.08837,-0.117822 -0.08837,-0.294556 0,-0.260449 0.213941,-0.434082 0.21394,-0.173632 0.544152,-0.173632 0.345716,0 0.551905,0.165881 0.206189,0.165881 0.206189,0.42168 0,0.156579 -0.09767,0.308508 -0.09767,0.150378 -0.286804,0.235644 v 0.0093 q 0.217041,0.09302 0.331763,0.229444 0.114721,0.136425 0.114721,0.347265 z m -0.367419,-1.127063 q 0,-0.165881 -0.128674,-0.26355 -0.127124,-0.09922 -0.325562,-0.09922 -0.195337,0 -0.32091,0.09302 -0.124024,0.09302 -0.124024,0.251148 0,0.111621 0.06201,0.193786 0.06356,0.08062 0.190686,0.144178 0.05736,0.02791 0.164331,0.07286 0.10852,0.04496 0.21084,0.07441 0.153479,-0.102319 0.21239,-0.21239 0.05891,-0.110071 0.05891,-0.254248 z m 0.04806,1.156519 q 0,-0.142627 -0.06356,-0.227893 -0.06201,-0.08682 -0.244946,-0.173633 -0.07286,-0.03411 -0.15968,-0.06356 -0.08682,-0.02946 -0.230994,-0.08217 -0.139526,0.07596 -0.224793,0.206189 -0.08371,0.130225 -0.08371,0.294556 0,0.20929 0.144177,0.345715 0.144177,0.136426 0.365869,0.136426 0.226343,0 0.361218,-0.116272 0.136426,-0.116272 0.136426,-0.31936 z"
         id="path968" />
    </g>
    <g
       aria-label="CV"
       id="text704"
       style="font-size:3.175px;stroke:#916f6f;stroke-width:0.264583">
      <path
         d="m 4.8335097,95.297275 q -0.085266,0.03721 -0.1550293,0.06976 -0.068213,0.03256 -0.179834,0.06821 -0.094568,0.02946 -0.206189,0.04961 -0.1100708,0.0217 -0.243396,0.0217 -0.2511474,0 -0.4573364,-0.06976 -0.2046387,-0.07131 -0.3565674,-0.221692 -0.1488281,-0.147278 -0.2325439,-0.37362 -0.083716,-0.227893 -0.083716,-0.52865 0,-0.285254 0.080615,-0.510047 0.080615,-0.224792 0.2325439,-0.379821 0.1472779,-0.150379 0.3550171,-0.229444 0.2092896,-0.07906 0.4635376,-0.07906 0.1860352,0 0.37052,0.04496 0.1860352,0.04496 0.412378,0.15813 v 0.364319 h -0.023254 q -0.1906861,-0.159681 -0.3782715,-0.232544 -0.1875855,-0.07286 -0.4015259,-0.07286 -0.1751831,0 -0.3162598,0.05736 -0.1395263,0.05581 -0.2495971,0.175183 -0.1069702,0.116272 -0.1674317,0.294555 -0.058911,0.176734 -0.058911,0.409278 0,0.243396 0.065112,0.418579 0.066663,0.175183 0.1705322,0.285254 0.1085205,0.114721 0.2526978,0.170532 0.1457275,0.05426 0.306958,0.05426 0.2216919,0 0.4154785,-0.07596 0.1937866,-0.07596 0.3627686,-0.227893 h 0.021704 z"
         id="path974" />
      <path
         d="M 7.0876356,93.15632 6.2473769,95.464706 H 5.8380995 L 4.9978407,93.15632 h 0.3286621 l 0.7239868,2.030884 0.7239869,-2.030884 z"
         id="path976" />
    </g>
    <g
       aria-label="In "
       id="text710"
       style="font-size:3.175px;stroke:#916f6f;stroke-width:0.264583">
      <path
         d="m 12.543186,95.464706 h -0.911572 v -0.235644 h 0.302307 V 93.391965 H 11.631614 V 93.15632 h 0.911572 v 0.235645 h -0.302307 v 1.837097 h 0.302307 z"
         id="path979" />
      <path
         d="M 14.490354,95.464706 H 14.198899 V 94.47872 q 0,-0.119372 -0.01395,-0.223242 -0.01395,-0.10542 -0.05116,-0.164331 -0.03876,-0.06511 -0.111621,-0.09612 -0.07286,-0.03256 -0.189136,-0.03256 -0.119373,0 -0.249597,0.05891 -0.130225,0.05891 -0.249597,0.150378 v 1.292944 H 13.04238 v -1.731677 h 0.291456 v 0.192237 q 0.136425,-0.113172 0.282153,-0.176734 0.145727,-0.06356 0.299206,-0.06356 0.280603,0 0.427881,0.168982 0.147278,0.168982 0.147278,0.486792 z"
         id="path981" />
    </g>
    <g
       aria-label="Out"
       id="text714"
       style="font-size:3.175px;stroke:#916f6f;stroke-width:0.264583">
      <path
         d="m 8.1972642,99.359416 q 0.1410766,0.15503 0.2154907,0.379822 0.075964,0.224792 0.075964,0.510042 0,0.28526 -0.077515,0.5116 -0.075964,0.22479 -0.2139404,0.37517 -0.142627,0.15658 -0.3379639,0.23565 -0.1937866,0.0791 -0.4433838,0.0791 -0.243396,0 -0.4433838,-0.0806 -0.1984375,-0.0806 -0.3379638,-0.2341 -0.1395264,-0.15348 -0.2154907,-0.37672 -0.074414,-0.22324 -0.074414,-0.51005 0,-0.282149 0.074414,-0.505391 0.074414,-0.224793 0.217041,-0.384473 0.1364257,-0.151928 0.3379638,-0.232544 0.2030884,-0.08062 0.4418335,-0.08062 0.2480469,0 0.4449341,0.08217 0.1984375,0.08062 0.3364136,0.230993 z m -0.027905,0.889864 q 0,-0.449581 -0.2015381,-0.692977 -0.2015381,-0.244946 -0.550354,-0.244946 -0.3519165,0 -0.5534546,0.244946 -0.1999878,0.243396 -0.1999878,0.692977 0,0.45424 0.2046387,0.69609 0.2046387,0.24029 0.5488037,0.24029 0.344165,0 0.5472534,-0.24029 0.2046387,-0.24185 0.2046387,-0.69609 z"
         id="path984" />
      <path
         d="m 10.387828,101.4027 h -0.291455 v -0.19223 q -0.1472777,0.11627 -0.2821532,0.17828 -0.1348755,0.062 -0.2976563,0.062 -0.2728515,0 -0.4247802,-0.16588 -0.1519287,-0.16743 -0.1519287,-0.48989 v -1.123965 h 0.291455 v 0.985985 q 0,0.13178 0.012402,0.22634 0.012402,0.093 0.05271,0.15968 0.041858,0.0682 0.1085206,0.0992 0.066663,0.031 0.1937866,0.031 0.1131714,0 0.2464966,-0.0589 0.1348754,-0.0589 0.2511473,-0.15038 v -1.292945 h 0.291455 z"
         id="path986" />
      <path
         d="m 11.860607,101.3872 q -0.08217,0.0217 -0.179834,0.0357 -0.09612,0.0139 -0.172083,0.0139 -0.2651,0 -0.403076,-0.14263 -0.137976,-0.14263 -0.137976,-0.45733 v -0.920879 h -0.196887 v -0.244946 h 0.196887 v -0.497644 h 0.291455 v 0.497644 h 0.601514 v 0.244946 h -0.601514 v 0.789099 q 0,0.13643 0.0062,0.21394 0.0062,0.076 0.04341,0.14263 0.03411,0.062 0.09302,0.0915 0.06046,0.0279 0.182935,0.0279 0.07131,0 0.148828,-0.0202 0.07751,-0.0217 0.111621,-0.0357 h 0.0155 z"
         id="path988" />
    </g>
    <g
       aria-label="Uplyt"
       id="text718"
       style="font-size:3.175px;stroke:#916f6f;stroke-width:0.264583">
      <path
         d="m 3.1898593,125.8263 q 0,0.25115 -0.055811,0.43874 -0.05426,0.18603 -0.179834,0.31006 -0.1193725,0.11782 -0.2790527,0.17208 -0.1596802,0.0543 -0.3720703,0.0543 -0.217041,0 -0.3782715,-0.0574 -0.1612305,-0.0574 -0.2713013,-0.16898 -0.1255737,-0.12713 -0.1813842,-0.30696 -0.05426,-0.17984 -0.05426,-0.44184 v -1.38131 h 0.306958 v 1.39682 q 0,0.18758 0.024805,0.2961 0.026355,0.10852 0.086816,0.19689 0.068213,0.10077 0.1844849,0.15193 0.1178222,0.0512 0.2821533,0.0512 0.1658813,0 0.2821533,-0.0496 0.116272,-0.0512 0.1860351,-0.15348 0.060461,-0.0884 0.085266,-0.20154 0.026355,-0.11472 0.026355,-0.2837 v -1.40457 h 0.306958 z"
         id="path991" />
      <path
         d="m 5.2765535,125.86661 q 0,0.21084 -0.060461,0.38603 -0.060461,0.17363 -0.1705322,0.29455 -0.1023194,0.11472 -0.2418457,0.17828 -0.1379761,0.062 -0.2930054,0.062 -0.1348755,0 -0.2449463,-0.0295 -0.1085205,-0.0295 -0.2216919,-0.0915 v 0.72554 h -0.291455 v -2.3704 h 0.291455 v 0.18139 q 0.116272,-0.0977 0.2604493,-0.16278 0.1457275,-0.0667 0.3100585,-0.0667 0.3131592,0 0.486792,0.2372 0.1751831,0.23564 0.1751831,0.65577 z m -0.3007568,0.008 q 0,-0.31316 -0.1069702,-0.46818 -0.1069702,-0.15503 -0.3286621,-0.15503 -0.1255737,0 -0.2526978,0.0543 -0.127124,0.0543 -0.243396,0.14262 v 0.98134 q 0.1240235,0.0558 0.2123902,0.076 0.089917,0.0202 0.2030883,0.0202 0.243396,0 0.3798218,-0.16433 0.1364258,-0.16434 0.1364258,-0.4868 z"
         id="path993" />
      <path
         d="M 6.0253452,126.75338 H 5.7338901 v -2.41226 h 0.2914551 z"
         id="path995" />
      <path
         d="m 8.099637,125.0217 -1.010791,2.3704 H 6.7772371 L 7.099698,126.66966 6.4098177,125.0217 h 0.3162597 l 0.5317505,1.28365 0.5364014,-1.28365 z"
         id="path997" />
      <path
         d="m 9.3801788,126.73788 q -0.082166,0.0217 -0.179834,0.0356 -0.096118,0.014 -0.1720825,0.014 -0.2651001,0 -0.4030762,-0.14263 -0.137976,-0.14263 -0.137976,-0.45734 v -0.92087 H 8.2903229 v -0.24495 h 0.1968872 v -0.49764 h 0.291455 v 0.49764 h 0.6015137 v 0.24495 H 8.7786651 v 0.7891 q 0,0.13642 0.0062,0.21394 0.0062,0.076 0.043408,0.14263 0.034106,0.062 0.093018,0.0915 0.060461,0.0279 0.1829345,0.0279 0.071313,0 0.1488282,-0.0202 0.077515,-0.0217 0.1116211,-0.0356 h 0.015503 z"
         id="path999" />
    </g>
    <rect
       style="fill:none;stroke:#000000;stroke-width:0.264583"
       id="rect828"
       width="8.2218409"
       height="13.017915"
       x="5.0244584"
       y="98.205322" />
    <rect
       style="fill:none;stroke:#000000;stroke-width:0.264583"
       id="rect830"
       width="8.4502258"
       height="11.190839"
       x="5.4812274"
       y="56.182579" />
    <rect
       style="fill:none;stroke:#000000;stroke-width:0.264583"
       id="rect832"
       width="8.4502258"
       height="13.017915"
       x="6.1663804"
       y="27.63452" />
  </g>
  <g
     inkscape:groupmode="layer"
     id="layer2"
     inkscape:label="components"
     style="display:none">
    <ellipse
       style="fill:#ff0000;fill-opacity:1;stroke:#ff0000;stroke-width:0.264583;stroke-opacity:1"
       id="path1145"
       cx="10.277301"
       cy="9.7063398"
       rx="2.7406137"
       ry="2.6264212"
       inkscape:label="bpmControl" />
    <ellipse
       style="fill:#ff0000;fill-opacity:1;stroke:#fa0000;stroke-width:0.264583;stroke-opacity:1"
       id="path1147"
       cx="6.9657269"
       cy="17.128836"
       rx="2.6264212"
       ry="2.5122292"
       inkscape:label="bpmCVControl" />
    <ellipse
       style="fill:#00ff00;fill-opacity:1;stroke:#00ff00;stroke-width:0.264583;stroke-opacity:1"
       id="path1149"
       cx="14.844991"
       cy="16.443682"
       rx="2.5122292"
       ry="2.0554602"
       inkscape:label="bpmCVInput" />
    <ellipse
       style="fill:#0000ff;fill-opacity:1;stroke:#0000ff;stroke-width:0.264583;stroke-opacity:1"
       id="path1151"
       cx="10.962455"
       cy="36.655708"
       rx="2.2838447"
       ry="1.9412681"
       inkscape:label="bpmOutput" />
    <ellipse
       style="fill:#0000ff;fill-opacity:1;stroke:#0000ff;stroke-width:0.264583;stroke-opacity:1"
       id="path1153"
       cx="9.9347248"
       cy="63.262497"
       rx="2.398037"
       ry="1.8270757"
       inkscape:label="subdivideOutput" />
    <ellipse
       style="fill:#ff0000;fill-opacity:1;stroke:#ff0000;stroke-width:0.264583;stroke-opacity:1"
       id="path1155"
       cx="9.8205328"
       cy="75.024292"
       rx="3.1973825"
       ry="2.6264212"
       inkscape:label="tupletControl" />
    <ellipse
       style="fill:#ff0000;fill-opacity:1;stroke:#ff0000;stroke-width:0.264583;stroke-opacity:1"
       id="path1157"
       cx="5.5954194"
       cy="88.384796"
       rx="2.398037"
       ry="2.2838447"
       inkscape:label="tupletCVControl" />
    <circle
       style="fill:#00ff00;fill-opacity:1;stroke:#00ff00;stroke-width:0.264583;stroke-opacity:1"
       id="path1159"
       cx="13.931454"
       cy="87.699638"
       r="2.5122292"
       inkscape:label="tupletCVInput" />
    <ellipse
       style="fill:#0000ff;fill-opacity:1;stroke:#0000ff;stroke-width:0.264583;stroke-opacity:1"
       id="path1161"
       cx="9.3637638"
       cy="105.62782"
       rx="2.5122292"
       ry="2.1696525"
       inkscape:label="tupletOutput" />
    <rect
       style="fill:#ff0000;fill-opacity:1;stroke:#ff0000;stroke-width:0.264583;stroke-opacity:1"
       id="rect1163"
       width="10.277301"
       height="3.6541512"
       x="5.0244584"
       y="50.016201"
       inkscape:label="subdivideSwitch" />
  </g>
</svg>
